<mxGraphModel dx="0" dy="0" grid="1" gridSize="10" guides="1" tooltips="1" connect="1" arrows="1" fold="1" page="0" pageScale="1" background="none" math="0" shadow="0">
  <root>
    <mxCell id="0" />
    <mxCell id="1" parent="0" />
    <mxCell id="node16" parent="1" vertex="1" value="&lt;p style=&quot;margin:0px;margin-top:4px;text-align:center;&quot;&gt;&lt;b&gt;bo_nho&lt;/b&gt;&lt;/p&gt;&lt;hr size=&quot;1&quot;/&gt;&lt;p style=&quot;margin:0 0 0 4px;line-height:1.6;&quot;&gt; ma_bo_nho: varchar(10)&lt;br/&gt; mo_ta_bo_nho: varchar(150)&lt;/p&gt;&lt;hr size=&quot;1&quot;/&gt;&lt;p style=&quot;margin:0 0 0 4px;line-height:1.6;&quot;&gt; id: bigint&lt;/p&gt;" style="verticalAlign=top;align=left;overflow=fill;fontSize=14;fontFamily=Helvetica;html=1;rounded=0;shadow=0;comic=0;labelBackgroundColor=none;strokeWidth=1;">
      <mxGeometry x="2039" y="568" width="203" height="121" as="geometry" />
    </mxCell>
    <mxCell id="node31" parent="1" vertex="1" value="&lt;p style=&quot;margin:0px;margin-top:4px;text-align:center;&quot;&gt;&lt;b&gt;chuyen_doi_trang_thai_hoa_don&lt;/b&gt;&lt;/p&gt;&lt;hr size=&quot;1&quot;/&gt;&lt;p style=&quot;margin:0 0 0 4px;line-height:1.6;&quot;&gt; trang_thai_tu: varchar(255)&lt;br/&gt; trang_thai_den: varchar(255)&lt;br/&gt; cho_phep: boolean&lt;br/&gt; vai_tro_yeu_cau: varchar(255)&lt;br/&gt; quy_tac_kinh_doanh: varchar(500)&lt;br/&gt; yeu_cau_ly_do: boolean&lt;br/&gt; chi_he_thong: boolean&lt;br/&gt; ngay_tao: timestamp&lt;/p&gt;&lt;hr size=&quot;1&quot;/&gt;&lt;p style=&quot;margin:0 0 0 4px;line-height:1.6;&quot;&gt; id: bigint&lt;/p&gt;" style="verticalAlign=top;align=left;overflow=fill;fontSize=14;fontFamily=Helvetica;html=1;rounded=0;shadow=0;comic=0;labelBackgroundColor=none;strokeWidth=1;">
      <mxGeometry x="929" y="3476" width="303" height="256" as="geometry" />
    </mxCell>
    <mxCell id="node39" parent="1" vertex="1" value="&lt;p style=&quot;margin:0px;margin-top:4px;text-align:center;&quot;&gt;&lt;b&gt;cpu&lt;/b&gt;&lt;/p&gt;&lt;hr size=&quot;1&quot;/&gt;&lt;p style=&quot;margin:0 0 0 4px;line-height:1.6;&quot;&gt; ma_cpu: varchar(10)&lt;br/&gt; mo_ta_cpu: varchar(255)&lt;/p&gt;&lt;hr size=&quot;1&quot;/&gt;&lt;p style=&quot;margin:0 0 0 4px;line-height:1.6;&quot;&gt; id: bigint&lt;/p&gt;" style="verticalAlign=top;align=left;overflow=fill;fontSize=14;fontFamily=Helvetica;html=1;rounded=0;shadow=0;comic=0;labelBackgroundColor=none;strokeWidth=1;">
      <mxGeometry x="2289" y="568" width="182" height="121" as="geometry" />
    </mxCell>
    <mxCell id="node6" parent="1" vertex="1" value="&lt;p style=&quot;margin:0px;margin-top:4px;text-align:center;&quot;&gt;&lt;b&gt;danh_gia&lt;/b&gt;&lt;/p&gt;&lt;hr size=&quot;1&quot;/&gt;&lt;p style=&quot;margin:0 0 0 4px;line-height:1.6;&quot;&gt; ngay_tao: timestamp&lt;br/&gt; ngay_cap_nhat: timestamp&lt;br/&gt; nguoi_tao: varchar(100)&lt;br/&gt; nguoi_cap_nhat: varchar(100)&lt;br/&gt; nguoi_dung_id: bigint&lt;br/&gt; san_pham_id: bigint&lt;br/&gt; hoa_don_chi_tiet_id: bigint&lt;br/&gt; diem_danh_gia: integer&lt;br/&gt; noi_dung: varchar(1000)&lt;br/&gt; tieu_de: varchar(200)&lt;br/&gt; hinh_anh: jsonb&lt;br/&gt; trang_thai: varchar(255)&lt;/p&gt;&lt;hr size=&quot;1&quot;/&gt;&lt;p style=&quot;margin:0 0 0 4px;line-height:1.6;&quot;&gt; id: bigint&lt;/p&gt;" style="verticalAlign=top;align=left;overflow=fill;fontSize=14;fontFamily=Helvetica;html=1;rounded=0;shadow=0;comic=0;labelBackgroundColor=none;strokeWidth=1;">
      <mxGeometry x="715" y="3028" width="211" height="352" as="geometry" />
    </mxCell>
    <mxCell id="node22" parent="1" vertex="1" value="&lt;p style=&quot;margin:0px;margin-top:4px;text-align:center;&quot;&gt;&lt;b&gt;danh_muc&lt;/b&gt;&lt;/p&gt;&lt;hr size=&quot;1&quot;/&gt;&lt;p style=&quot;margin:0 0 0 4px;line-height:1.6;&quot;&gt; ma_danh_muc: varchar(10)&lt;br/&gt; mo_ta_danh_muc: varchar(255)&lt;/p&gt;&lt;hr size=&quot;1&quot;/&gt;&lt;p style=&quot;margin:0 0 0 4px;line-height:1.6;&quot;&gt; id: bigint&lt;/p&gt;" style="verticalAlign=top;align=left;overflow=fill;fontSize=14;fontFamily=Helvetica;html=1;rounded=0;shadow=0;comic=0;labelBackgroundColor=none;strokeWidth=1;">
      <mxGeometry x="1049" y="568" width="222" height="121" as="geometry" />
    </mxCell>
    <mxCell id="node34" parent="1" vertex="1" value="&lt;p style=&quot;margin:0px;margin-top:4px;text-align:center;&quot;&gt;&lt;b&gt;danh_sach_yeu_thich&lt;/b&gt;&lt;/p&gt;&lt;hr size=&quot;1&quot;/&gt;&lt;p style=&quot;margin:0 0 0 4px;line-height:1.6;&quot;&gt; ngay_tao: timestamp&lt;br/&gt; ngay_cap_nhat: timestamp&lt;br/&gt; nguoi_tao: varchar(100)&lt;br/&gt; nguoi_cap_nhat: varchar(100)&lt;br/&gt; nguoi_dung_id: bigint&lt;br/&gt; san_pham_id: bigint&lt;br/&gt; gia_khi_them: numeric(15,2)&lt;/p&gt;&lt;hr size=&quot;1&quot;/&gt;&lt;p style=&quot;margin:0 0 0 4px;line-height:1.6;&quot;&gt; id: bigint&lt;/p&gt;" style="verticalAlign=top;align=left;overflow=fill;fontSize=14;fontFamily=Helvetica;html=1;rounded=0;shadow=0;comic=0;labelBackgroundColor=none;strokeWidth=1;">
      <mxGeometry x="754" y="1648" width="212" height="232" as="geometry" />
    </mxCell>
    <mxCell id="node36" parent="1" vertex="1" value="&lt;p style=&quot;margin:0px;margin-top:4px;text-align:center;&quot;&gt;&lt;b&gt;databasechangelog&lt;/b&gt;&lt;/p&gt;&lt;hr size=&quot;1&quot;/&gt;&lt;p style=&quot;margin:0 0 0 4px;line-height:1.6;&quot;&gt; id: varchar(255)&lt;br/&gt; author: varchar(255)&lt;br/&gt; filename: varchar(255)&lt;br/&gt; dateexecuted: timestamp&lt;br/&gt; orderexecuted: integer&lt;br/&gt; exectype: varchar(10)&lt;br/&gt; md5sum: varchar(35)&lt;br/&gt; description: varchar(255)&lt;br/&gt; comments: varchar(255)&lt;br/&gt; tag: varchar(255)&lt;br/&gt; liquibase: varchar(20)&lt;br/&gt; contexts: varchar(255)&lt;br/&gt; labels: varchar(255)&lt;br/&gt; deployment_id: varchar(10)&lt;/p&gt;" style="verticalAlign=top;align=left;overflow=fill;fontSize=14;fontFamily=Helvetica;html=1;rounded=0;shadow=0;comic=0;labelBackgroundColor=none;strokeWidth=1;">
      <mxGeometry x="579" y="3417" width="202" height="375" as="geometry" />
    </mxCell>
    <mxCell id="node10" parent="1" vertex="1" value="&lt;p style=&quot;margin:0px;margin-top:4px;text-align:center;&quot;&gt;&lt;b&gt;databasechangeloglock&lt;/b&gt;&lt;/p&gt;&lt;hr size=&quot;1&quot;/&gt;&lt;p style=&quot;margin:0 0 0 4px;line-height:1.6;&quot;&gt; locked: boolean&lt;br/&gt; lockgranted: timestamp&lt;br/&gt; lockedby: varchar(255)&lt;/p&gt;&lt;hr size=&quot;1&quot;/&gt;&lt;p style=&quot;margin:0 0 0 4px;line-height:1.6;&quot;&gt; id: integer&lt;/p&gt;" style="verticalAlign=top;align=left;overflow=fill;fontSize=14;fontFamily=Helvetica;html=1;rounded=0;shadow=0;comic=0;labelBackgroundColor=none;strokeWidth=1;">
      <mxGeometry x="1481" y="3136" width="238" height="147" as="geometry" />
    </mxCell>
    <mxCell id="node21" parent="1" vertex="1" value="&lt;p style=&quot;margin:0px;margin-top:4px;text-align:center;&quot;&gt;&lt;b&gt;dia_chi&lt;/b&gt;&lt;/p&gt;&lt;hr size=&quot;1&quot;/&gt;&lt;p style=&quot;margin:0 0 0 4px;line-height:1.6;&quot;&gt; nguoi_dung_id: bigint&lt;br/&gt; duong: varchar(255)&lt;br/&gt; phuong_xa: varchar(100)&lt;br/&gt; quan_huyen: varchar(100)&lt;br/&gt; tinh_thanh: varchar(100)&lt;br/&gt; quoc_gia: varchar(100)&lt;br/&gt; loai_dia_chi: varchar(50)&lt;br/&gt; la_mac_dinh: boolean&lt;br/&gt; ngay_tao: timestamp with time zone&lt;br/&gt; ngay_cap_nhat: timestamp with time zone&lt;/p&gt;&lt;hr size=&quot;1&quot;/&gt;&lt;p style=&quot;margin:0 0 0 4px;line-height:1.6;&quot;&gt; id: bigint&lt;/p&gt;" style="verticalAlign=top;align=left;overflow=fill;fontSize=14;fontFamily=Helvetica;html=1;rounded=0;shadow=0;comic=0;labelBackgroundColor=none;strokeWidth=1;">
      <mxGeometry x="135" y="472" width="290" height="304" as="geometry" />
    </mxCell>
    <mxCell id="node33" parent="1" vertex="1" value="&lt;p style=&quot;margin:0px;margin-top:4px;text-align:center;&quot;&gt;&lt;b&gt;dot_giam_gia&lt;/b&gt;&lt;/p&gt;&lt;hr size=&quot;1&quot;/&gt;&lt;p style=&quot;margin:0 0 0 4px;line-height:1.6;&quot;&gt; ngay_tao: timestamp&lt;br/&gt; ngay_cap_nhat: timestamp&lt;br/&gt; nguoi_tao: varchar(100)&lt;br/&gt; nguoi_cap_nhat: varchar(100)&lt;br/&gt; ma_dot_giam_gia: varchar(50)&lt;br/&gt; ten_dot_giam_gia: varchar(255)&lt;br/&gt; phan_tram_giam: numeric(5,2)&lt;br/&gt; ngay_bat_dau: timestamp&lt;br/&gt; ngay_ket_thuc: timestamp&lt;br/&gt; trang_thai: varchar(255)&lt;/p&gt;&lt;hr size=&quot;1&quot;/&gt;&lt;p style=&quot;margin:0 0 0 4px;line-height:1.6;&quot;&gt; id: bigint&lt;/p&gt;" style="verticalAlign=top;align=left;overflow=fill;fontSize=14;fontFamily=Helvetica;html=1;rounded=0;shadow=0;comic=0;labelBackgroundColor=none;strokeWidth=1;">
      <mxGeometry x="2189" y="1032" width="223" height="304" as="geometry" />
    </mxCell>
    <mxCell id="node19" parent="1" vertex="1" value="&lt;p style=&quot;margin:0px;margin-top:4px;text-align:center;&quot;&gt;&lt;b&gt;dot_giam_gia_audit_history&lt;/b&gt;&lt;/p&gt;&lt;hr size=&quot;1&quot;/&gt;&lt;p style=&quot;margin:0 0 0 4px;line-height:1.6;&quot;&gt; dot_giam_gia_id: bigint&lt;br/&gt; hanh_dong: varchar(50)&lt;br/&gt; thoi_gian_thay_doi: timestamp&lt;br/&gt; nguoi_thuc_hien: varchar(100)&lt;br/&gt; ly_do_thay_doi: varchar(500)&lt;br/&gt; gia_tri_cu: jsonb&lt;br/&gt; gia_tri_moi: jsonb&lt;/p&gt;&lt;hr size=&quot;1&quot;/&gt;&lt;p style=&quot;margin:0 0 0 4px;line-height:1.6;&quot;&gt; id: bigint&lt;/p&gt;" style="verticalAlign=top;align=left;overflow=fill;fontSize=14;fontFamily=Helvetica;html=1;rounded=0;shadow=0;comic=0;labelBackgroundColor=none;strokeWidth=1;">
      <mxGeometry x="2407" y="2648" width="266" height="232" as="geometry" />
    </mxCell>
    <mxCell id="node5" parent="1" vertex="1" value="&lt;p style=&quot;margin:0px;margin-top:4px;text-align:center;&quot;&gt;&lt;b&gt;gio_hang&lt;/b&gt;&lt;/p&gt;&lt;hr size=&quot;1&quot;/&gt;&lt;p style=&quot;margin:0 0 0 4px;line-height:1.6;&quot;&gt; ngay_tao: timestamp&lt;br/&gt; ngay_cap_nhat: timestamp&lt;br/&gt; nguoi_tao: varchar(100)&lt;br/&gt; nguoi_cap_nhat: varchar(100)&lt;br/&gt; nguoi_dung_id: bigint&lt;br/&gt; session_id: varchar(255)&lt;/p&gt;&lt;hr size=&quot;1&quot;/&gt;&lt;p style=&quot;margin:0 0 0 4px;line-height:1.6;&quot;&gt; id: bigint&lt;/p&gt;" style="verticalAlign=top;align=left;overflow=fill;fontSize=14;fontFamily=Helvetica;html=1;rounded=0;shadow=0;comic=0;labelBackgroundColor=none;strokeWidth=1;">
      <mxGeometry x="935" y="1080" width="211" height="208" as="geometry" />
    </mxCell>
    <mxCell id="node12" parent="1" vertex="1" value="&lt;p style=&quot;margin:0px;margin-top:4px;text-align:center;&quot;&gt;&lt;b&gt;gio_hang_chi_tiet&lt;/b&gt;&lt;/p&gt;&lt;hr size=&quot;1&quot;/&gt;&lt;p style=&quot;margin:0 0 0 4px;line-height:1.6;&quot;&gt; ngay_tao: timestamp&lt;br/&gt; ngay_cap_nhat: timestamp&lt;br/&gt; nguoi_tao: varchar(100)&lt;br/&gt; nguoi_cap_nhat: varchar(100)&lt;br/&gt; gio_hang_id: bigint&lt;br/&gt; san_pham_chi_tiet_id: bigint&lt;br/&gt; so_luong: integer&lt;br/&gt; gia_tai_thoi_diem_them: numeric(15,2)&lt;/p&gt;&lt;hr size=&quot;1&quot;/&gt;&lt;p style=&quot;margin:0 0 0 4px;line-height:1.6;&quot;&gt; id: bigint&lt;/p&gt;" style="verticalAlign=top;align=left;overflow=fill;fontSize=14;fontFamily=Helvetica;html=1;rounded=0;shadow=0;comic=0;labelBackgroundColor=none;strokeWidth=1;">
      <mxGeometry x="1248" y="2636" width="265" height="256" as="geometry" />
    </mxCell>
    <mxCell id="node37" parent="1" vertex="1" value="&lt;p style=&quot;margin:0px;margin-top:4px;text-align:center;&quot;&gt;&lt;b&gt;gpu&lt;/b&gt;&lt;/p&gt;&lt;hr size=&quot;1&quot;/&gt;&lt;p style=&quot;margin:0 0 0 4px;line-height:1.6;&quot;&gt; ma_gpu: varchar(10)&lt;br/&gt; mo_ta_gpu: varchar(255)&lt;/p&gt;&lt;hr size=&quot;1&quot;/&gt;&lt;p style=&quot;margin:0 0 0 4px;line-height:1.6;&quot;&gt; id: bigint&lt;/p&gt;" style="verticalAlign=top;align=left;overflow=fill;fontSize=14;fontFamily=Helvetica;html=1;rounded=0;shadow=0;comic=0;labelBackgroundColor=none;strokeWidth=1;">
      <mxGeometry x="1929" y="268" width="183" height="121" as="geometry" />
    </mxCell>
    <mxCell id="node17" parent="1" vertex="1" value="&lt;p style=&quot;margin:0px;margin-top:4px;text-align:center;&quot;&gt;&lt;b&gt;hoa_don&lt;/b&gt;&lt;/p&gt;&lt;hr size=&quot;1&quot;/&gt;&lt;p style=&quot;margin:0 0 0 4px;line-height:1.6;&quot;&gt; ngay_tao: timestamp&lt;br/&gt; ngay_cap_nhat: timestamp&lt;br/&gt; nguoi_tao: varchar(100)&lt;br/&gt; nguoi_cap_nhat: varchar(100)&lt;br/&gt; ma_hoa_don: varchar(255)&lt;br/&gt; khach_hang_id: bigint&lt;br/&gt; nhan_vien_id: bigint&lt;br/&gt; dia_chi_giao_hang_id: bigint&lt;br/&gt; nguoi_nhan_ten: varchar(255)&lt;br/&gt; nguoi_nhan_sdt: varchar(20)&lt;br/&gt; tong_tien_hang: numeric(15,2)&lt;br/&gt; gia_tri_giam_gia_voucher: numeric(15,2)&lt;br/&gt; phi_van_chuyen: numeric(15,2)&lt;br/&gt; tong_thanh_toan: numeric(15,2)&lt;br/&gt; trang_thai_don_hang: varchar(255)&lt;br/&gt; trang_thai_thanh_toan: varchar(255)&lt;br/&gt; loai_hoa_don: varchar(255)&lt;br/&gt; ma_van_don: varchar(100)&lt;br/&gt; ngay_du_kien_giao_hang: timestamp&lt;br/&gt; nguoi_nhan_email: varchar&lt;br/&gt; so_tien_khach_no: numeric(15,2)&lt;br/&gt; so_tien_shop_no: numeric(15,2)&lt;br/&gt; trang_thai_cong_no: varchar(50)&lt;/p&gt;&lt;hr size=&quot;1&quot;/&gt;&lt;p style=&quot;margin:0 0 0 4px;line-height:1.6;&quot;&gt; id: bigint&lt;/p&gt;" style="verticalAlign=top;align=left;overflow=fill;fontSize=14;fontFamily=Helvetica;html=1;rounded=0;shadow=0;comic=0;labelBackgroundColor=none;strokeWidth=1;">
      <mxGeometry x="143" y="876" width="275" height="616" as="geometry" />
    </mxCell>
    <mxCell id="node13" parent="1" vertex="1" value="&lt;p style=&quot;margin:0px;margin-top:4px;text-align:center;&quot;&gt;&lt;b&gt;hoa_don_audit_history&lt;/b&gt;&lt;/p&gt;&lt;hr size=&quot;1&quot;/&gt;&lt;p style=&quot;margin:0 0 0 4px;line-height:1.6;&quot;&gt; hoa_don_id: bigint&lt;br/&gt; hanh_dong: varchar(50)&lt;br/&gt; thoi_gian_thay_doi: timestamp&lt;br/&gt; nguoi_thuc_hien: varchar(100)&lt;br/&gt; ly_do_thay_doi: varchar(500)&lt;br/&gt; gia_tri_cu: jsonb&lt;br/&gt; gia_tri_moi: jsonb&lt;/p&gt;&lt;hr size=&quot;1&quot;/&gt;&lt;p style=&quot;margin:0 0 0 4px;line-height:1.6;&quot;&gt; id: bigint&lt;/p&gt;" style="verticalAlign=top;align=left;overflow=fill;fontSize=14;fontFamily=Helvetica;html=1;rounded=0;shadow=0;comic=0;labelBackgroundColor=none;strokeWidth=1;">
      <mxGeometry x="28" y="2188" width="225" height="232" as="geometry" />
    </mxCell>
    <mxCell id="node20" parent="1" vertex="1" value="&lt;p style=&quot;margin:0px;margin-top:4px;text-align:center;&quot;&gt;&lt;b&gt;hoa_don_chi_tiet&lt;/b&gt;&lt;/p&gt;&lt;hr size=&quot;1&quot;/&gt;&lt;p style=&quot;margin:0 0 0 4px;line-height:1.6;&quot;&gt; ngay_tao: timestamp&lt;br/&gt; ngay_cap_nhat: timestamp&lt;br/&gt; nguoi_tao: varchar(100)&lt;br/&gt; nguoi_cap_nhat: varchar(100)&lt;br/&gt; hoa_don_id: bigint&lt;br/&gt; san_pham_chi_tiet_id: bigint&lt;br/&gt; so_luong: integer&lt;br/&gt; gia_goc: numeric(15,2)&lt;br/&gt; gia_ban: numeric(15,2)&lt;br/&gt; thanh_tien: numeric(15,2)&lt;br/&gt; ten_san_pham_snapshot: varchar(255)&lt;br/&gt; sku_snapshot: varchar(100)&lt;br/&gt; hinh_anh_snapshot: varchar(512)&lt;br/&gt; version  /* Version field for optimistic locking to prevent race conditio... */: bigint&lt;/p&gt;&lt;hr size=&quot;1&quot;/&gt;&lt;p style=&quot;margin:0 0 0 4px;line-height:1.6;&quot;&gt; id: bigint&lt;/p&gt;" style="verticalAlign=top;align=left;overflow=fill;fontSize=14;fontFamily=Helvetica;html=1;rounded=0;shadow=0;comic=0;labelBackgroundColor=none;strokeWidth=1;">
      <mxGeometry x="643" y="2564" width="354" height="400" as="geometry" />
    </mxCell>
    <mxCell id="node24" parent="1" vertex="1" value="&lt;p style=&quot;margin:0px;margin-top:4px;text-align:center;&quot;&gt;&lt;b&gt;hoa_don_phieu_giam_gia&lt;/b&gt;&lt;/p&gt;&lt;hr size=&quot;1&quot;/&gt;&lt;p style=&quot;margin:0 0 0 4px;line-height:1.6;&quot;&gt; gia_tri_da_giam: numeric(15,2)&lt;/p&gt;&lt;hr size=&quot;1&quot;/&gt;&lt;p style=&quot;margin:0 0 0 4px;line-height:1.6;&quot;&gt; hoa_don_id: bigint&lt;br/&gt; phieu_giam_gia_id: bigint&lt;/p&gt;" style="verticalAlign=top;align=left;overflow=fill;fontSize=14;fontFamily=Helvetica;html=1;rounded=0;shadow=0;comic=0;labelBackgroundColor=none;strokeWidth=1;">
      <mxGeometry x="218" y="2708" width="244" height="121" as="geometry" />
    </mxCell>
    <mxCell id="node8" parent="1" vertex="1" value="&lt;p style=&quot;margin:0px;margin-top:4px;text-align:center;&quot;&gt;&lt;b&gt;hoa_don_thanh_toan&lt;/b&gt;&lt;/p&gt;&lt;hr size=&quot;1&quot;/&gt;&lt;p style=&quot;margin:0 0 0 4px;line-height:1.6;&quot;&gt; so_tien_ap_dung: numeric(15,2)&lt;br/&gt; ngay_tao: timestamp&lt;br/&gt; ngay_cap_nhat: timestamp&lt;/p&gt;&lt;hr size=&quot;1&quot;/&gt;&lt;p style=&quot;margin:0 0 0 4px;line-height:1.6;&quot;&gt; hoa_don_id: bigint&lt;br/&gt; thanh_toan_id: bigint&lt;/p&gt;" style="verticalAlign=top;align=left;overflow=fill;fontSize=14;fontFamily=Helvetica;html=1;rounded=0;shadow=0;comic=0;labelBackgroundColor=none;strokeWidth=1;">
      <mxGeometry x="-173" y="2684" width="226" height="160" as="geometry" />
    </mxCell>
    <mxCell id="node2" parent="1" vertex="1" value="&lt;p style=&quot;margin:0px;margin-top:4px;text-align:center;&quot;&gt;&lt;b&gt;man_hinh&lt;/b&gt;&lt;/p&gt;&lt;hr size=&quot;1&quot;/&gt;&lt;p style=&quot;margin:0 0 0 4px;line-height:1.6;&quot;&gt; ma_man_hinh: varchar(10)&lt;br/&gt; mo_ta_man_hinh: varchar(300)&lt;/p&gt;&lt;hr size=&quot;1&quot;/&gt;&lt;p style=&quot;margin:0 0 0 4px;line-height:1.6;&quot;&gt; id: bigint&lt;/p&gt;" style="verticalAlign=top;align=left;overflow=fill;fontSize=14;fontFamily=Helvetica;html=1;rounded=0;shadow=0;comic=0;labelBackgroundColor=none;strokeWidth=1;">
      <mxGeometry x="1771" y="568" width="218" height="121" as="geometry" />
    </mxCell>
    <mxCell id="node30" parent="1" vertex="1" value="&lt;p style=&quot;margin:0px;margin-top:4px;text-align:center;&quot;&gt;&lt;b&gt;mau_sac&lt;/b&gt;&lt;/p&gt;&lt;hr size=&quot;1&quot;/&gt;&lt;p style=&quot;margin:0 0 0 4px;line-height:1.6;&quot;&gt; ma_mau_sac: varchar(10)&lt;br/&gt; mo_ta_mau_sac: varchar(100)&lt;/p&gt;&lt;hr size=&quot;1&quot;/&gt;&lt;p style=&quot;margin:0 0 0 4px;line-height:1.6;&quot;&gt; id: bigint&lt;/p&gt;" style="verticalAlign=top;align=left;overflow=fill;fontSize=14;fontFamily=Helvetica;html=1;rounded=0;shadow=0;comic=0;labelBackgroundColor=none;strokeWidth=1;">
      <mxGeometry x="2155" y="268" width="210" height="121" as="geometry" />
    </mxCell>
    <mxCell id="node0" parent="1" vertex="1" value="&lt;p style=&quot;margin:0px;margin-top:4px;text-align:center;&quot;&gt;&lt;b&gt;nguoi_dung&lt;/b&gt;&lt;/p&gt;&lt;hr size=&quot;1&quot;/&gt;&lt;p style=&quot;margin:0 0 0 4px;line-height:1.6;&quot;&gt; ngay_tao: timestamp&lt;br/&gt; ngay_cap_nhat: timestamp&lt;br/&gt; nguoi_tao: varchar(100)&lt;br/&gt; nguoi_cap_nhat: varchar(100)&lt;br/&gt; ma_nguoi_dung: varchar(50)&lt;br/&gt; avatar: varchar(512)&lt;br/&gt; ho_ten: varchar(255)&lt;br/&gt; gioi_tinh: varchar(255)&lt;br/&gt; ngay_sinh: date&lt;br/&gt; cccd: varchar(12)&lt;br/&gt; email: varchar(255)&lt;br/&gt; so_dien_thoai: varchar(20)&lt;br/&gt; mat_khau: varchar(255)&lt;br/&gt; vai_tro: varchar(255)&lt;br/&gt; trang_thai: varchar(255)&lt;/p&gt;&lt;hr size=&quot;1&quot;/&gt;&lt;p style=&quot;margin:0 0 0 4px;line-height:1.6;&quot;&gt; id: bigint&lt;/p&gt;" style="verticalAlign=top;align=left;overflow=fill;fontSize=14;fontFamily=Helvetica;html=1;rounded=0;shadow=0;comic=0;labelBackgroundColor=none;strokeWidth=1;">
      <mxGeometry x="335" y="-308" width="211" height="424" as="geometry" />
    </mxCell>
    <mxCell id="node32" parent="1" vertex="1" value="&lt;p style=&quot;margin:0px;margin-top:4px;text-align:center;&quot;&gt;&lt;b&gt;nguoi_dung_audit_history&lt;/b&gt;&lt;/p&gt;&lt;hr size=&quot;1&quot;/&gt;&lt;p style=&quot;margin:0 0 0 4px;line-height:1.6;&quot;&gt; nguoi_dung_id: bigint&lt;br/&gt; hanh_dong: varchar(50)&lt;br/&gt; thoi_gian_thay_doi: timestamp&lt;br/&gt; nguoi_thuc_hien: varchar(100)&lt;br/&gt; ly_do_thay_doi: varchar(500)&lt;br/&gt; gia_tri_cu: jsonb&lt;br/&gt; gia_tri_moi: jsonb&lt;/p&gt;&lt;hr size=&quot;1&quot;/&gt;&lt;p style=&quot;margin:0 0 0 4px;line-height:1.6;&quot;&gt; id: bigint&lt;/p&gt;" style="verticalAlign=top;align=left;overflow=fill;fontSize=14;fontFamily=Helvetica;html=1;rounded=0;shadow=0;comic=0;labelBackgroundColor=none;strokeWidth=1;">
      <mxGeometry x="1195" y="208" width="251" height="232" as="geometry" />
    </mxCell>
    <mxCell id="node28" parent="1" vertex="1" value="&lt;p style=&quot;margin:0px;margin-top:4px;text-align:center;&quot;&gt;&lt;b&gt;phieu_giam_gia&lt;/b&gt;&lt;/p&gt;&lt;hr size=&quot;1&quot;/&gt;&lt;p style=&quot;margin:0 0 0 4px;line-height:1.6;&quot;&gt; ngay_tao: timestamp&lt;br/&gt; ngay_cap_nhat: timestamp&lt;br/&gt; nguoi_tao: varchar(100)&lt;br/&gt; nguoi_cap_nhat: varchar(100)&lt;br/&gt; ma_phieu_giam_gia: varchar(50)&lt;br/&gt; loai_giam_gia: varchar(255)&lt;br/&gt; trang_thai: varchar(255)&lt;br/&gt; gia_tri_giam: numeric(15,2)&lt;br/&gt; gia_tri_don_hang_toi_thieu: numeric(15,2)&lt;br/&gt; ngay_bat_dau: timestamp&lt;br/&gt; ngay_ket_thuc: timestamp&lt;br/&gt; mo_ta: text&lt;br/&gt; so_luong_ban_dau: integer&lt;br/&gt; so_luong_da_dung: integer&lt;br/&gt; phieu_rieng_tu: boolean&lt;/p&gt;&lt;hr size=&quot;1&quot;/&gt;&lt;p style=&quot;margin:0 0 0 4px;line-height:1.6;&quot;&gt; id: bigint&lt;/p&gt;" style="verticalAlign=top;align=left;overflow=fill;fontSize=14;fontFamily=Helvetica;html=1;rounded=0;shadow=0;comic=0;labelBackgroundColor=none;strokeWidth=1;">
      <mxGeometry x="417" y="1552" width="286" height="424" as="geometry" />
    </mxCell>
    <mxCell id="node9" parent="1" vertex="1" value="&lt;p style=&quot;margin:0px;margin-top:4px;text-align:center;&quot;&gt;&lt;b&gt;phieu_giam_gia_audit_history&lt;/b&gt;&lt;/p&gt;&lt;hr size=&quot;1&quot;/&gt;&lt;p style=&quot;margin:0 0 0 4px;line-height:1.6;&quot;&gt; phieu_giam_gia_id: bigint&lt;br/&gt; hanh_dong: varchar(50)&lt;br/&gt; thoi_gian_thay_doi: timestamp&lt;br/&gt; nguoi_thuc_hien: varchar(100)&lt;br/&gt; ly_do_thay_doi: varchar(500)&lt;br/&gt; gia_tri_cu: jsonb&lt;br/&gt; gia_tri_moi: jsonb&lt;/p&gt;&lt;hr size=&quot;1&quot;/&gt;&lt;p style=&quot;margin:0 0 0 4px;line-height:1.6;&quot;&gt; id: bigint&lt;/p&gt;" style="verticalAlign=top;align=left;overflow=fill;fontSize=14;fontFamily=Helvetica;html=1;rounded=0;shadow=0;comic=0;labelBackgroundColor=none;strokeWidth=1;">
      <mxGeometry x="419" y="2188" width="283" height="232" as="geometry" />
    </mxCell>
    <mxCell id="node27" parent="1" vertex="1" value="&lt;p style=&quot;margin:0px;margin-top:4px;text-align:center;&quot;&gt;&lt;b&gt;phieu_giam_gia_nguoi_dung&lt;/b&gt;&lt;/p&gt;&lt;hr size=&quot;1&quot;/&gt;&lt;p style=&quot;margin:0 0 0 4px;line-height:1.6;&quot;&gt; ngay_nhan: timestamp&lt;br/&gt; da_su_dung: boolean&lt;br/&gt; ngay_su_dung: timestamp&lt;br/&gt; ngay_tao: timestamp&lt;br/&gt; ngay_cap_nhat: timestamp&lt;/p&gt;&lt;hr size=&quot;1&quot;/&gt;&lt;p style=&quot;margin:0 0 0 4px;line-height:1.6;&quot;&gt; phieu_giam_gia_id: bigint&lt;br/&gt; nguoi_dung_id: bigint&lt;/p&gt;" style="verticalAlign=top;align=left;overflow=fill;fontSize=14;fontFamily=Helvetica;html=1;rounded=0;shadow=0;comic=0;labelBackgroundColor=none;strokeWidth=1;">
      <mxGeometry x="925" y="2200" width="270" height="208" as="geometry" />
    </mxCell>
    <mxCell id="node14" parent="1" vertex="1" value="&lt;p style=&quot;margin:0px;margin-top:4px;text-align:center;&quot;&gt;&lt;b&gt;ram&lt;/b&gt;&lt;/p&gt;&lt;hr size=&quot;1&quot;/&gt;&lt;p style=&quot;margin:0 0 0 4px;line-height:1.6;&quot;&gt; ma_ram: varchar(10)&lt;br/&gt; mo_ta_ram: varchar(100)&lt;/p&gt;&lt;hr size=&quot;1&quot;/&gt;&lt;p style=&quot;margin:0 0 0 4px;line-height:1.6;&quot;&gt; id: bigint&lt;/p&gt;" style="verticalAlign=top;align=left;overflow=fill;fontSize=14;fontFamily=Helvetica;html=1;rounded=0;shadow=0;comic=0;labelBackgroundColor=none;strokeWidth=1;">
      <mxGeometry x="1650" y="268" width="180" height="121" as="geometry" />
    </mxCell>
    <mxCell id="node11" parent="1" vertex="1" value="&lt;p style=&quot;margin:0px;margin-top:4px;text-align:center;&quot;&gt;&lt;b&gt;san_pham&lt;/b&gt;&lt;/p&gt;&lt;hr size=&quot;1&quot;/&gt;&lt;p style=&quot;margin:0 0 0 4px;line-height:1.6;&quot;&gt; ngay_tao: timestamp&lt;br/&gt; ngay_cap_nhat: timestamp&lt;br/&gt; nguoi_tao: varchar(100)&lt;br/&gt; nguoi_cap_nhat: varchar(100)&lt;br/&gt; ma_san_pham: varchar(100)&lt;br/&gt; ten_san_pham: varchar(255)&lt;br/&gt; thuong_hieu_id: bigint&lt;br/&gt; mo_ta: varchar(5000)&lt;br/&gt; hinh_anh: jsonb&lt;br/&gt; ngay_ra_mat: date&lt;br/&gt; trang_thai: boolean&lt;/p&gt;&lt;hr size=&quot;1&quot;/&gt;&lt;p style=&quot;margin:0 0 0 4px;line-height:1.6;&quot;&gt; id: bigint&lt;/p&gt;" style="verticalAlign=top;align=left;overflow=fill;fontSize=14;fontFamily=Helvetica;html=1;rounded=0;shadow=0;comic=0;labelBackgroundColor=none;strokeWidth=1;">
      <mxGeometry x="1495" y="460" width="211" height="328" as="geometry" />
    </mxCell>
    <mxCell id="node4" parent="1" vertex="1" value="&lt;p style=&quot;margin:0px;margin-top:4px;text-align:center;&quot;&gt;&lt;b&gt;san_pham_audit_history&lt;/b&gt;&lt;/p&gt;&lt;hr size=&quot;1&quot;/&gt;&lt;p style=&quot;margin:0 0 0 4px;line-height:1.6;&quot;&gt; san_pham_id: bigint&lt;br/&gt; hanh_dong: varchar(50)&lt;br/&gt; thoi_gian_thay_doi: timestamp&lt;br/&gt; nguoi_thuc_hien: varchar(100)&lt;br/&gt; ly_do_thay_doi: varchar(500)&lt;br/&gt; gia_tri_cu: jsonb&lt;br/&gt; gia_tri_moi: jsonb&lt;/p&gt;&lt;hr size=&quot;1&quot;/&gt;&lt;p style=&quot;margin:0 0 0 4px;line-height:1.6;&quot;&gt; id: bigint&lt;/p&gt;" style="verticalAlign=top;align=left;overflow=fill;fontSize=14;fontFamily=Helvetica;html=1;rounded=0;shadow=0;comic=0;labelBackgroundColor=none;strokeWidth=1;">
      <mxGeometry x="1302" y="1068" width="237" height="232" as="geometry" />
    </mxCell>
    <mxCell id="node35" parent="1" vertex="1" value="&lt;p style=&quot;margin:0px;margin-top:4px;text-align:center;&quot;&gt;&lt;b&gt;san_pham_chi_tiet&lt;/b&gt;&lt;/p&gt;&lt;hr size=&quot;1&quot;/&gt;&lt;p style=&quot;margin:0 0 0 4px;line-height:1.6;&quot;&gt; ngay_tao: timestamp&lt;br/&gt; ngay_cap_nhat: timestamp&lt;br/&gt; nguoi_tao: varchar(100)&lt;br/&gt; nguoi_cap_nhat: varchar(100)&lt;br/&gt; san_pham_id: bigint&lt;br/&gt; sku: varchar(100)&lt;br/&gt; cpu_id: bigint&lt;br/&gt; ram_id: bigint&lt;br/&gt; gpu_id: bigint&lt;br/&gt; mau_sac_id: bigint&lt;br/&gt; bo_nho_id: bigint&lt;br/&gt; man_hinh_id: bigint&lt;br/&gt; gia_ban: numeric(15,2)&lt;br/&gt; gia_khuyen_mai: numeric(15,2)&lt;br/&gt; hinh_anh: jsonb&lt;br/&gt; trang_thai: boolean&lt;br/&gt; version  /* Version field for optimistic locking to prevent race conditio... */: bigint&lt;/p&gt;&lt;hr size=&quot;1&quot;/&gt;&lt;p style=&quot;margin:0 0 0 4px;line-height:1.6;&quot;&gt; id: bigint&lt;/p&gt;" style="verticalAlign=top;align=left;overflow=fill;fontSize=14;fontFamily=Helvetica;html=1;rounded=0;shadow=0;comic=0;labelBackgroundColor=none;strokeWidth=1;">
      <mxGeometry x="1843" y="1528" width="354" height="472" as="geometry" />
    </mxCell>
    <mxCell id="node23" parent="1" vertex="1" value="&lt;p style=&quot;margin:0px;margin-top:4px;text-align:center;&quot;&gt;&lt;b&gt;san_pham_chi_tiet_audit_history&lt;/b&gt;&lt;/p&gt;&lt;hr size=&quot;1&quot;/&gt;&lt;p style=&quot;margin:0 0 0 4px;line-height:1.6;&quot;&gt; san_pham_chi_tiet_id: bigint&lt;br/&gt; hanh_dong: varchar(50)&lt;br/&gt; thoi_gian_thay_doi: timestamp&lt;br/&gt; nguoi_thuc_hien: varchar(100)&lt;br/&gt; ly_do_thay_doi: varchar(500)&lt;br/&gt; gia_tri_cu: jsonb&lt;br/&gt; gia_tri_moi: jsonb&lt;/p&gt;&lt;hr size=&quot;1&quot;/&gt;&lt;p style=&quot;margin:0 0 0 4px;line-height:1.6;&quot;&gt; id: bigint&lt;/p&gt;" style="verticalAlign=top;align=left;overflow=fill;fontSize=14;fontFamily=Helvetica;html=1;rounded=0;shadow=0;comic=0;labelBackgroundColor=none;strokeWidth=1;">
      <mxGeometry x="1747" y="2188" width="307" height="232" as="geometry" />
    </mxCell>
    <mxCell id="node15" parent="1" vertex="1" value="&lt;p style=&quot;margin:0px;margin-top:4px;text-align:center;&quot;&gt;&lt;b&gt;san_pham_chi_tiet_dot_giam_gia&lt;/b&gt;&lt;/p&gt;&lt;hr size=&quot;1&quot;/&gt;&lt;p style=&quot;margin:0 0 0 4px;line-height:1.6;&quot;&gt; dot_giam_gia_id: bigint&lt;br/&gt; san_pham_chi_tiet_id: bigint&lt;/p&gt;" style="verticalAlign=top;align=left;overflow=fill;fontSize=14;fontFamily=Helvetica;html=1;rounded=0;shadow=0;comic=0;labelBackgroundColor=none;strokeWidth=1;">
      <mxGeometry x="2006" y="2721" width="309" height="94" as="geometry" />
    </mxCell>
    <mxCell id="node7" parent="1" vertex="1" value="&lt;p style=&quot;margin:0px;margin-top:4px;text-align:center;&quot;&gt;&lt;b&gt;san_pham_danh_muc&lt;/b&gt;&lt;/p&gt;&lt;hr size=&quot;1&quot;/&gt;&lt;p style=&quot;margin:0 0 0 4px;line-height:1.6;&quot;&gt; danh_muc_id: bigint&lt;br/&gt; san_pham_id: bigint&lt;/p&gt;" style="verticalAlign=top;align=left;overflow=fill;fontSize=14;fontFamily=Helvetica;html=1;rounded=0;shadow=0;comic=0;labelBackgroundColor=none;strokeWidth=1;">
      <mxGeometry x="1115" y="1721" width="211" height="94" as="geometry" />
    </mxCell>
    <mxCell id="node25" parent="1" vertex="1" value="&lt;p style=&quot;margin:0px;margin-top:4px;text-align:center;&quot;&gt;&lt;b&gt;san_pham_embed_view&lt;/b&gt;&lt;/p&gt;&lt;hr size=&quot;1&quot;/&gt;&lt;p style=&quot;margin:0 0 0 4px;line-height:1.6;&quot;&gt; san_pham_chi_tiet_id: bigint&lt;br/&gt; sku: varchar(100)&lt;br/&gt; noi_dung_embed: text&lt;/p&gt;" style="verticalAlign=top;align=left;overflow=fill;fontSize=14;fontFamily=Helvetica;html=1;rounded=0;shadow=0;comic=0;labelBackgroundColor=none;strokeWidth=1;">
      <mxGeometry x="1465" y="2249" width="231" height="120" as="geometry" />
    </mxCell>
    <mxCell id="node38" parent="1" vertex="1" value="&lt;p style=&quot;margin:0px;margin-top:4px;text-align:center;&quot;&gt;&lt;b&gt;san_pham_embeddings&lt;/b&gt;&lt;/p&gt;&lt;hr size=&quot;1&quot;/&gt;&lt;p style=&quot;margin:0 0 0 4px;line-height:1.6;&quot;&gt; full_text: text&lt;br/&gt; embedding: vector(768)&lt;br/&gt; model_name: text&lt;br/&gt; created_at: timestamp&lt;br/&gt; updated_at: timestamp&lt;/p&gt;&lt;hr size=&quot;1&quot;/&gt;&lt;p style=&quot;margin:0 0 0 4px;line-height:1.6;&quot;&gt; san_pham_chi_tiet_id: bigint&lt;/p&gt;" style="verticalAlign=top;align=left;overflow=fill;fontSize=14;fontFamily=Helvetica;html=1;rounded=0;shadow=0;comic=0;labelBackgroundColor=none;strokeWidth=1;">
      <mxGeometry x="1605" y="2672" width="230" height="184" as="geometry" />
    </mxCell>
    <mxCell id="node29" parent="1" vertex="1" value="&lt;p style=&quot;margin:0px;margin-top:4px;text-align:center;&quot;&gt;&lt;b&gt;serial_number&lt;/b&gt;&lt;/p&gt;&lt;hr size=&quot;1&quot;/&gt;&lt;p style=&quot;margin:0 0 0 4px;line-height:1.6;&quot;&gt; ngay_tao: timestamp&lt;br/&gt; ngay_cap_nhat: timestamp&lt;br/&gt; nguoi_tao: varchar(100)&lt;br/&gt; nguoi_cap_nhat: varchar(100)&lt;br/&gt; serial_number_value: varchar(100)&lt;br/&gt; san_pham_chi_tiet_id: bigint&lt;br/&gt; trang_thai: varchar(255)&lt;br/&gt; thoi_gian_dat_truoc: timestamp&lt;br/&gt; kenh_dat_truoc: varchar(20)&lt;br/&gt; don_hang_dat_truoc: varchar(50)&lt;br/&gt; batch_number: varchar(50)&lt;br/&gt; ngay_san_xuat: timestamp&lt;br/&gt; ngay_het_bao_hanh: timestamp&lt;br/&gt; nha_cung_cap: varchar(100)&lt;br/&gt; import_batch_id: varchar(50)&lt;br/&gt; ghi_chu: varchar(500)&lt;/p&gt;&lt;hr size=&quot;1&quot;/&gt;&lt;p style=&quot;margin:0 0 0 4px;line-height:1.6;&quot;&gt; id: bigint&lt;/p&gt;" style="verticalAlign=top;align=left;overflow=fill;fontSize=14;fontFamily=Helvetica;html=1;rounded=0;shadow=0;comic=0;labelBackgroundColor=none;strokeWidth=1;">
      <mxGeometry x="2260" y="2080" width="240" height="448" as="geometry" />
    </mxCell>
    <mxCell id="node18" parent="1" vertex="1" value="&lt;p style=&quot;margin:0px;margin-top:4px;text-align:center;&quot;&gt;&lt;b&gt;serial_number_audit_history&lt;/b&gt;&lt;/p&gt;&lt;hr size=&quot;1&quot;/&gt;&lt;p style=&quot;margin:0 0 0 4px;line-height:1.6;&quot;&gt; serial_number_id: bigint&lt;br/&gt; hanh_dong: varchar(50)&lt;br/&gt; thoi_gian_thay_doi: timestamp&lt;br/&gt; nguoi_thuc_hien: varchar(100)&lt;br/&gt; ly_do_thay_doi: varchar(500)&lt;br/&gt; gia_tri_cu: jsonb&lt;br/&gt; gia_tri_moi: jsonb&lt;br/&gt; ip_address: varchar(45)&lt;br/&gt; user_agent: varchar(500)&lt;br/&gt; batch_operation_id: varchar(50)&lt;br/&gt; order_id: varchar(50)&lt;br/&gt; channel: varchar(20)&lt;br/&gt; metadata: jsonb&lt;/p&gt;&lt;hr size=&quot;1&quot;/&gt;&lt;p style=&quot;margin:0 0 0 4px;line-height:1.6;&quot;&gt; id: bigint&lt;/p&gt;" style="verticalAlign=top;align=left;overflow=fill;fontSize=14;fontFamily=Helvetica;html=1;rounded=0;shadow=0;comic=0;labelBackgroundColor=none;strokeWidth=1;">
      <mxGeometry x="1305" y="3416" width="271" height="376" as="geometry" />
    </mxCell>
    <mxCell id="node26" parent="1" vertex="1" value="&lt;p style=&quot;margin:0px;margin-top:4px;text-align:center;&quot;&gt;&lt;b&gt;serial_number_hoa_don_chi_tiet&lt;/b&gt;&lt;/p&gt;&lt;hr size=&quot;1&quot;/&gt;&lt;p style=&quot;margin:0 0 0 4px;line-height:1.6;&quot;&gt; serial_number_id: bigint&lt;br/&gt; hoa_don_chi_tiet_id: bigint&lt;br/&gt; ngay_tao: timestamp&lt;/p&gt;&lt;hr size=&quot;1&quot;/&gt;&lt;p style=&quot;margin:0 0 0 4px;line-height:1.6;&quot;&gt; id: bigint&lt;/p&gt;" style="verticalAlign=top;align=left;overflow=fill;fontSize=14;fontFamily=Helvetica;html=1;rounded=0;shadow=0;comic=0;labelBackgroundColor=none;strokeWidth=1;">
      <mxGeometry x="1109" y="3136" width="302" height="147" as="geometry" />
    </mxCell>
    <mxCell id="node3" parent="1" vertex="1" value="&lt;p style=&quot;margin:0px;margin-top:4px;text-align:center;&quot;&gt;&lt;b&gt;thanh_toan&lt;/b&gt;&lt;/p&gt;&lt;hr size=&quot;1&quot;/&gt;&lt;p style=&quot;margin:0 0 0 4px;line-height:1.6;&quot;&gt; nguoi_dung_id: bigint&lt;br/&gt; ma_giao_dich: varchar(255)&lt;br/&gt; gia_tri: numeric(15,2)&lt;br/&gt; ghi_chu: text&lt;br/&gt; thoi_gian_thanh_toan: timestamp&lt;br/&gt; ngay_tao: timestamp&lt;br/&gt; ngay_cap_nhat: timestamp&lt;br/&gt; trang_thai_giao_dich: varchar(255)&lt;br/&gt; phuong_thuc_thanh_toan: varchar(255)&lt;/p&gt;&lt;hr size=&quot;1&quot;/&gt;&lt;p style=&quot;margin:0 0 0 4px;line-height:1.6;&quot;&gt; id: bigint&lt;/p&gt;" style="verticalAlign=top;align=left;overflow=fill;fontSize=14;fontFamily=Helvetica;html=1;rounded=0;shadow=0;comic=0;labelBackgroundColor=none;strokeWidth=1;">
      <mxGeometry x="-177" y="1624" width="274" height="280" as="geometry" />
    </mxCell>
    <mxCell id="node1" parent="1" vertex="1" value="&lt;p style=&quot;margin:0px;margin-top:4px;text-align:center;&quot;&gt;&lt;b&gt;thuong_hieu&lt;/b&gt;&lt;/p&gt;&lt;hr size=&quot;1&quot;/&gt;&lt;p style=&quot;margin:0 0 0 4px;line-height:1.6;&quot;&gt; ma_thuong_hieu: varchar(10)&lt;br/&gt; mo_ta_thuong_hieu: varchar(300)&lt;/p&gt;&lt;hr size=&quot;1&quot;/&gt;&lt;p style=&quot;margin:0 0 0 4px;line-height:1.6;&quot;&gt; id: bigint&lt;/p&gt;" style="verticalAlign=top;align=left;overflow=fill;fontSize=14;fontFamily=Helvetica;html=1;rounded=0;shadow=0;comic=0;labelBackgroundColor=none;strokeWidth=1;">
      <mxGeometry x="1482" y="-152" width="237" height="121" as="geometry" />
    </mxCell>
    <mxCell id="edge12" edge="1" value="" parent="1" source="node6" target="node20" style="html=1;rounded=1;edgeStyle=orthogonalEdgeStyle;dashed=0;startArrow=none;endArrow=block;endSize=12;strokeColor=#595959;exitX=0.500;exitY=0.000;exitDx=0;exitDy=0;entryX=0.500;entryY=1.000;entryDx=0;entryDy=0;">
      <mxGeometry width="50" height="50" relative="1" as="geometry">
        <Array as="points" />
      </mxGeometry>
    </mxCell>
    <mxCell id="label74" parent="edge12" vertex="1" connectable="0" value="hoa_don_chi_tiet_id:id" style="edgeLabel;resizable=0;html=1;align=left;verticalAlign=top;strokeColor=default;">
      <mxGeometry x="697" y="2986" as="geometry" />
    </mxCell>
    <mxCell id="edge40" edge="1" value="" parent="1" source="node6" target="node0" style="html=1;rounded=1;edgeStyle=orthogonalEdgeStyle;dashed=0;startArrow=none;endArrow=block;endSize=12;strokeColor=#595959;exitX=0.167;exitY=0.000;exitDx=0;exitDy=0;entryX=0.833;entryY=1.000;entryDx=0;entryDy=0;">
      <mxGeometry width="50" height="50" relative="1" as="geometry">
        <Array as="points">
          <mxPoint x="750" y="3004" />
          <mxPoint x="-200" y="3004" />
          <mxPoint x="-200" y="184" />
          <mxPoint x="520" y="184" />
          <mxPoint x="520" y="144" />
          <mxPoint x="510" y="144" />
        </Array>
      </mxGeometry>
    </mxCell>
    <mxCell id="label242" parent="edge40" vertex="1" connectable="0" value="nguoi_dung_id:id" style="edgeLabel;resizable=0;html=1;align=left;verticalAlign=top;strokeColor=default;">
      <mxGeometry x="112" y="164" as="geometry" />
    </mxCell>
    <mxCell id="edge23" edge="1" value="" parent="1" source="node6" target="node11" style="html=1;rounded=1;edgeStyle=orthogonalEdgeStyle;dashed=0;startArrow=none;endArrow=block;endSize=12;strokeColor=#595959;exitX=0.833;exitY=0.000;exitDx=0;exitDy=0;entryX=0.500;entryY=1.000;entryDx=0;entryDy=0;">
      <mxGeometry width="50" height="50" relative="1" as="geometry">
        <Array as="points">
          <mxPoint x="890" y="2984" />
          <mxPoint x="1220" y="2984" />
          <mxPoint x="1220" y="2024" />
          <mxPoint x="1560" y="2024" />
          <mxPoint x="1560" y="1044" />
          <mxPoint x="1420" y="1044" />
          <mxPoint x="1420" y="824" />
          <mxPoint x="1600" y="824" />
        </Array>
      </mxGeometry>
    </mxCell>
    <mxCell id="label140" parent="edge23" vertex="1" connectable="0" value="san_pham_id:id" style="edgeLabel;resizable=0;html=1;align=left;verticalAlign=top;strokeColor=default;">
      <mxGeometry x="1471" y="1524" as="geometry" />
    </mxCell>
    <mxCell id="edge29" edge="1" value="" parent="1" source="node34" target="node0" style="html=1;rounded=1;edgeStyle=orthogonalEdgeStyle;dashed=0;startArrow=none;endArrow=block;endSize=12;strokeColor=#595959;exitX=0.250;exitY=0.000;exitDx=0;exitDy=0;entryX=0.833;entryY=1.000;entryDx=0;entryDy=0;">
      <mxGeometry width="50" height="50" relative="1" as="geometry">
        <Array as="points">
          <mxPoint x="807" y="1524" />
          <mxPoint x="520" y="1524" />
          <mxPoint x="520" y="144" />
          <mxPoint x="510" y="144" />
        </Array>
      </mxGeometry>
    </mxCell>
    <mxCell id="label176" parent="edge29" vertex="1" connectable="0" value="nguoi_dung_id:id" style="edgeLabel;resizable=0;html=1;align=left;verticalAlign=top;strokeColor=default;">
      <mxGeometry x="424" y="824" as="geometry" />
    </mxCell>
    <mxCell id="edge16" edge="1" value="" parent="1" source="node34" target="node11" style="html=1;rounded=1;edgeStyle=orthogonalEdgeStyle;dashed=0;startArrow=none;endArrow=block;endSize=12;strokeColor=#595959;exitX=0.750;exitY=0.000;exitDx=0;exitDy=0;entryX=0.500;entryY=1.000;entryDx=0;entryDy=0;">
      <mxGeometry width="50" height="50" relative="1" as="geometry">
        <Array as="points">
          <mxPoint x="913" y="1044" />
          <mxPoint x="1420" y="1044" />
          <mxPoint x="1420" y="824" />
          <mxPoint x="1600" y="824" />
        </Array>
      </mxGeometry>
    </mxCell>
    <mxCell id="label98" parent="edge16" vertex="1" connectable="0" value="san_pham_id:id" style="edgeLabel;resizable=0;html=1;align=left;verticalAlign=top;strokeColor=default;">
      <mxGeometry x="1331" y="924" as="geometry" />
    </mxCell>
    <mxCell id="edge8" edge="1" value="" parent="1" source="node21" target="node0" style="html=1;rounded=1;edgeStyle=orthogonalEdgeStyle;dashed=0;startArrow=none;endArrow=block;endSize=12;strokeColor=#595959;exitX=0.500;exitY=0.000;exitDx=0;exitDy=0;entryX=0.833;entryY=1.000;entryDx=0;entryDy=0;">
      <mxGeometry width="50" height="50" relative="1" as="geometry">
        <Array as="points">
          <mxPoint x="280" y="184" />
          <mxPoint x="520" y="184" />
          <mxPoint x="520" y="144" />
          <mxPoint x="510" y="144" />
        </Array>
      </mxGeometry>
    </mxCell>
    <mxCell id="label50" parent="edge8" vertex="1" connectable="0" value="nguoi_dung_id:id" style="edgeLabel;resizable=0;html=1;align=left;verticalAlign=top;strokeColor=default;">
      <mxGeometry x="472" y="164" as="geometry" />
    </mxCell>
    <mxCell id="edge11" edge="1" value="" parent="1" source="node19" target="node33" style="html=1;rounded=1;edgeStyle=orthogonalEdgeStyle;dashed=0;startArrow=none;endArrow=block;endSize=12;strokeColor=#595959;exitX=0.500;exitY=0.000;exitDx=0;exitDy=0;entryX=0.500;entryY=1.000;entryDx=0;entryDy=0;">
      <mxGeometry width="50" height="50" relative="1" as="geometry">
        <Array as="points">
          <mxPoint x="2540" y="2064" />
          <mxPoint x="2300" y="2064" />
        </Array>
      </mxGeometry>
    </mxCell>
    <mxCell id="label68" parent="edge11" vertex="1" connectable="0" value="dot_giam_gia_id:id" style="edgeLabel;resizable=0;html=1;align=left;verticalAlign=top;strokeColor=default;">
      <mxGeometry x="2435" y="2054" as="geometry" />
    </mxCell>
    <mxCell id="edge39" edge="1" value="" parent="1" source="node5" target="node0" style="html=1;rounded=1;edgeStyle=orthogonalEdgeStyle;dashed=0;startArrow=none;endArrow=block;endSize=12;strokeColor=#595959;exitX=0.500;exitY=0.000;exitDx=0;exitDy=0;entryX=0.833;entryY=1.000;entryDx=0;entryDy=0;">
      <mxGeometry width="50" height="50" relative="1" as="geometry">
        <Array as="points">
          <mxPoint x="1040" y="1024" />
          <mxPoint x="1020" y="1024" />
          <mxPoint x="1020" y="184" />
          <mxPoint x="520" y="184" />
          <mxPoint x="520" y="144" />
          <mxPoint x="510" y="144" />
        </Array>
      </mxGeometry>
    </mxCell>
    <mxCell id="label236" parent="edge39" vertex="1" connectable="0" value="nguoi_dung_id:id" style="edgeLabel;resizable=0;html=1;align=left;verticalAlign=top;strokeColor=default;">
      <mxGeometry x="924" y="384" as="geometry" />
    </mxCell>
    <mxCell id="edge3" edge="1" value="" parent="1" source="node12" target="node5" style="html=1;rounded=1;edgeStyle=orthogonalEdgeStyle;dashed=0;startArrow=none;endArrow=block;endSize=12;strokeColor=#595959;exitX=0.250;exitY=0.000;exitDx=0;exitDy=0;entryX=0.500;entryY=1.000;entryDx=0;entryDy=0;">
      <mxGeometry width="50" height="50" relative="1" as="geometry">
        <Array as="points">
          <mxPoint x="1314" y="2004" />
          <mxPoint x="1040" y="2004" />
        </Array>
      </mxGeometry>
    </mxCell>
    <mxCell id="label20" parent="edge3" vertex="1" connectable="0" value="gio_hang_id:id" style="edgeLabel;resizable=0;html=1;align=left;verticalAlign=top;strokeColor=default;">
      <mxGeometry x="1232" y="2057" as="geometry" />
    </mxCell>
    <mxCell id="edge37" edge="1" value="" parent="1" source="node12" target="node35" style="html=1;rounded=1;edgeStyle=orthogonalEdgeStyle;dashed=0;startArrow=none;endArrow=block;endSize=12;strokeColor=#595959;exitX=0.750;exitY=0.000;exitDx=0;exitDy=0;entryX=0.500;entryY=1.000;entryDx=0;entryDy=0;">
      <mxGeometry width="50" height="50" relative="1" as="geometry">
        <Array as="points">
          <mxPoint x="1446" y="2044" />
          <mxPoint x="2020" y="2044" />
        </Array>
      </mxGeometry>
    </mxCell>
    <mxCell id="label224" parent="edge37" vertex="1" connectable="0" value="san_pham_chi_tiet_id:id" style="edgeLabel;resizable=0;html=1;align=left;verticalAlign=top;strokeColor=default;">
      <mxGeometry x="1313" y="2093" as="geometry" />
    </mxCell>
    <mxCell id="edge34" edge="1" value="" parent="1" source="node17" target="node21" style="html=1;rounded=1;edgeStyle=orthogonalEdgeStyle;dashed=0;startArrow=none;endArrow=block;endSize=12;strokeColor=#595959;exitX=0.500;exitY=0.000;exitDx=0;exitDy=0;entryX=0.500;entryY=1.000;entryDx=0;entryDy=0;">
      <mxGeometry width="50" height="50" relative="1" as="geometry">
        <Array as="points" />
      </mxGeometry>
    </mxCell>
    <mxCell id="label206" parent="edge34" vertex="1" connectable="0" value="dia_chi_giao_hang_id:id" style="edgeLabel;resizable=0;html=1;align=left;verticalAlign=top;strokeColor=default;">
      <mxGeometry x="148" y="791" as="geometry" />
    </mxCell>
    <mxCell id="edge21" edge="1" value="" parent="1" source="node17" target="node0" style="html=1;rounded=1;edgeStyle=orthogonalEdgeStyle;dashed=0;startArrow=none;endArrow=block;endSize=12;strokeColor=#595959;exitX=0.167;exitY=0.000;exitDx=0;exitDy=0;entryX=0.167;entryY=1.000;entryDx=0;entryDy=0;">
      <mxGeometry width="50" height="50" relative="1" as="geometry">
        <Array as="points">
          <mxPoint x="188" y="844" />
          <mxPoint x="120" y="844" />
          <mxPoint x="120" y="164" />
          <mxPoint x="370" y="164" />
        </Array>
      </mxGeometry>
    </mxCell>
    <mxCell id="label128" parent="edge21" vertex="1" connectable="0" value="nhan_vien_id:id" style="edgeLabel;resizable=0;html=1;align=left;verticalAlign=top;strokeColor=default;">
      <mxGeometry x="32" y="494" as="geometry" />
    </mxCell>
    <mxCell id="edge44" edge="1" value="" parent="1" source="node17" target="node0" style="html=1;rounded=1;edgeStyle=orthogonalEdgeStyle;dashed=0;startArrow=none;endArrow=block;endSize=12;strokeColor=#595959;exitX=0.833;exitY=0.000;exitDx=0;exitDy=0;entryX=0.500;entryY=1.000;entryDx=0;entryDy=0;">
      <mxGeometry width="50" height="50" relative="1" as="geometry">
        <Array as="points">
          <mxPoint x="372" y="844" />
          <mxPoint x="440" y="844" />
        </Array>
      </mxGeometry>
    </mxCell>
    <mxCell id="label266" parent="edge44" vertex="1" connectable="0" value="khach_hang_id:id" style="edgeLabel;resizable=0;html=1;align=left;verticalAlign=top;strokeColor=default;">
      <mxGeometry x="323" y="824" as="geometry" />
    </mxCell>
    <mxCell id="edge2" edge="1" value="" parent="1" source="node13" target="node17" style="html=1;rounded=1;edgeStyle=orthogonalEdgeStyle;dashed=0;startArrow=none;endArrow=block;endSize=12;strokeColor=#595959;exitX=0.500;exitY=0.000;exitDx=0;exitDy=0;entryX=0.500;entryY=1.000;entryDx=0;entryDy=0;">
      <mxGeometry width="50" height="50" relative="1" as="geometry">
        <Array as="points">
          <mxPoint x="140" y="2144" />
          <mxPoint x="280" y="2144" />
        </Array>
      </mxGeometry>
    </mxCell>
    <mxCell id="label14" parent="edge2" vertex="1" connectable="0" value="hoa_don_id:id" style="edgeLabel;resizable=0;html=1;align=left;verticalAlign=top;strokeColor=default;">
      <mxGeometry x="61" y="2156" as="geometry" />
    </mxCell>
    <mxCell id="edge26" edge="1" value="" parent="1" source="node20" target="node17" style="html=1;rounded=1;edgeStyle=orthogonalEdgeStyle;dashed=0;startArrow=none;endArrow=block;endSize=12;strokeColor=#595959;exitX=0.250;exitY=0.000;exitDx=0;exitDy=0;entryX=0.500;entryY=1.000;entryDx=0;entryDy=0;">
      <mxGeometry width="50" height="50" relative="1" as="geometry">
        <Array as="points">
          <mxPoint x="732" y="2144" />
          <mxPoint x="280" y="2144" />
        </Array>
      </mxGeometry>
    </mxCell>
    <mxCell id="label158" parent="edge26" vertex="1" connectable="0" value="hoa_don_id:id" style="edgeLabel;resizable=0;html=1;align=left;verticalAlign=top;strokeColor=default;">
      <mxGeometry x="579" y="2124" as="geometry" />
    </mxCell>
    <mxCell id="edge18" edge="1" value="" parent="1" source="node20" target="node35" style="html=1;rounded=1;edgeStyle=orthogonalEdgeStyle;dashed=0;startArrow=none;endArrow=block;endSize=12;strokeColor=#595959;exitX=0.750;exitY=0.000;exitDx=0;exitDy=0;entryX=0.500;entryY=1.000;entryDx=0;entryDy=0;">
      <mxGeometry width="50" height="50" relative="1" as="geometry">
        <Array as="points">
          <mxPoint x="909" y="2044" />
          <mxPoint x="2020" y="2044" />
        </Array>
      </mxGeometry>
    </mxCell>
    <mxCell id="label110" parent="edge18" vertex="1" connectable="0" value="san_pham_chi_tiet_id:id" style="edgeLabel;resizable=0;html=1;align=left;verticalAlign=top;strokeColor=default;">
      <mxGeometry x="1398" y="2024" as="geometry" />
    </mxCell>
    <mxCell id="edge35" edge="1" value="" parent="1" source="node24" target="node17" style="html=1;rounded=1;edgeStyle=orthogonalEdgeStyle;dashed=0;startArrow=none;endArrow=block;endSize=12;strokeColor=#595959;exitX=0.250;exitY=0.000;exitDx=0;exitDy=0;entryX=0.500;entryY=1.000;entryDx=0;entryDy=0;">
      <mxGeometry width="50" height="50" relative="1" as="geometry">
        <Array as="points">
          <mxPoint x="279" y="2144" />
          <mxPoint x="280" y="2144" />
        </Array>
      </mxGeometry>
    </mxCell>
    <mxCell id="label212" parent="edge35" vertex="1" connectable="0" value="hoa_don_id:id" style="edgeLabel;resizable=0;html=1;align=left;verticalAlign=top;strokeColor=default;">
      <mxGeometry x="201" y="2069" as="geometry" />
    </mxCell>
    <mxCell id="edge31" edge="1" value="" parent="1" source="node24" target="node28" style="html=1;rounded=1;edgeStyle=orthogonalEdgeStyle;dashed=0;startArrow=none;endArrow=block;endSize=12;strokeColor=#595959;exitX=0.750;exitY=0.000;exitDx=0;exitDy=0;entryX=0.500;entryY=1.000;entryDx=0;entryDy=0;">
      <mxGeometry width="50" height="50" relative="1" as="geometry">
        <Array as="points">
          <mxPoint x="401" y="2164" />
          <mxPoint x="560" y="2164" />
        </Array>
      </mxGeometry>
    </mxCell>
    <mxCell id="label188" parent="edge31" vertex="1" connectable="0" value="phieu_giam_gia_id:id" style="edgeLabel;resizable=0;html=1;align=left;verticalAlign=top;strokeColor=default;">
      <mxGeometry x="442" y="2107" as="geometry" />
    </mxCell>
    <mxCell id="edge43" edge="1" value="" parent="1" source="node8" target="node17" style="html=1;rounded=1;edgeStyle=orthogonalEdgeStyle;dashed=0;startArrow=none;endArrow=block;endSize=12;strokeColor=#595959;exitX=0.750;exitY=0.000;exitDx=0;exitDy=0;entryX=0.500;entryY=1.000;entryDx=0;entryDy=0;">
      <mxGeometry width="50" height="50" relative="1" as="geometry">
        <Array as="points">
          <mxPoint x="-3" y="2144" />
          <mxPoint x="280" y="2144" />
        </Array>
      </mxGeometry>
    </mxCell>
    <mxCell id="label260" parent="edge43" vertex="1" connectable="0" value="hoa_don_id:id" style="edgeLabel;resizable=0;html=1;align=left;verticalAlign=top;strokeColor=default;">
      <mxGeometry x="201" y="2003" as="geometry" />
    </mxCell>
    <mxCell id="edge24" edge="1" value="" parent="1" source="node8" target="node3" style="html=1;rounded=1;edgeStyle=orthogonalEdgeStyle;dashed=0;startArrow=none;endArrow=block;endSize=12;strokeColor=#595959;exitX=0.250;exitY=0.000;exitDx=0;exitDy=0;entryX=0.500;entryY=1.000;entryDx=0;entryDy=0;">
      <mxGeometry width="50" height="50" relative="1" as="geometry">
        <Array as="points">
          <mxPoint x="-116" y="2664" />
          <mxPoint x="-40" y="2664" />
        </Array>
      </mxGeometry>
    </mxCell>
    <mxCell id="label146" parent="edge24" vertex="1" connectable="0" value="thanh_toan_id:id" style="edgeLabel;resizable=0;html=1;align=left;verticalAlign=top;strokeColor=default;">
      <mxGeometry x="-163" y="2644" as="geometry" />
    </mxCell>
    <mxCell id="edge33" edge="1" value="" parent="1" source="node32" target="node0" style="html=1;rounded=1;edgeStyle=orthogonalEdgeStyle;dashed=0;startArrow=none;endArrow=block;endSize=12;strokeColor=#595959;exitX=0.500;exitY=0.000;exitDx=0;exitDy=0;entryX=0.833;entryY=1.000;entryDx=0;entryDy=0;">
      <mxGeometry width="50" height="50" relative="1" as="geometry">
        <Array as="points">
          <mxPoint x="1320" y="184" />
          <mxPoint x="520" y="184" />
          <mxPoint x="520" y="144" />
          <mxPoint x="510" y="144" />
        </Array>
      </mxGeometry>
    </mxCell>
    <mxCell id="label200" parent="edge33" vertex="1" connectable="0" value="nguoi_dung_id:id" style="edgeLabel;resizable=0;html=1;align=left;verticalAlign=top;strokeColor=default;">
      <mxGeometry x="605" y="164" as="geometry" />
    </mxCell>
    <mxCell id="edge6" edge="1" value="" parent="1" source="node9" target="node28" style="html=1;rounded=1;edgeStyle=orthogonalEdgeStyle;dashed=0;startArrow=none;endArrow=block;endSize=12;strokeColor=#595959;exitX=0.500;exitY=0.000;exitDx=0;exitDy=0;entryX=0.500;entryY=1.000;entryDx=0;entryDy=0;">
      <mxGeometry width="50" height="50" relative="1" as="geometry">
        <Array as="points" />
      </mxGeometry>
    </mxCell>
    <mxCell id="label38" parent="edge6" vertex="1" connectable="0" value="phieu_giam_gia_id:id" style="edgeLabel;resizable=0;html=1;align=left;verticalAlign=top;strokeColor=default;">
      <mxGeometry x="442" y="2072" as="geometry" />
    </mxCell>
    <mxCell id="edge28" edge="1" value="" parent="1" source="node27" target="node0" style="html=1;rounded=1;edgeStyle=orthogonalEdgeStyle;dashed=0;startArrow=none;endArrow=block;endSize=12;strokeColor=#595959;exitX=0.750;exitY=0.000;exitDx=0;exitDy=0;entryX=0.833;entryY=1.000;entryDx=0;entryDy=0;">
      <mxGeometry width="50" height="50" relative="1" as="geometry">
        <Array as="points">
          <mxPoint x="1128" y="2024" />
          <mxPoint x="720" y="2024" />
          <mxPoint x="720" y="184" />
          <mxPoint x="520" y="184" />
          <mxPoint x="520" y="144" />
          <mxPoint x="510" y="144" />
        </Array>
      </mxGeometry>
    </mxCell>
    <mxCell id="label170" parent="edge28" vertex="1" connectable="0" value="nguoi_dung_id:id" style="edgeLabel;resizable=0;html=1;align=left;verticalAlign=top;strokeColor=default;">
      <mxGeometry x="624" y="634" as="geometry" />
    </mxCell>
    <mxCell id="edge15" edge="1" value="" parent="1" source="node27" target="node28" style="html=1;rounded=1;edgeStyle=orthogonalEdgeStyle;dashed=0;startArrow=none;endArrow=block;endSize=12;strokeColor=#595959;exitX=0.250;exitY=0.000;exitDx=0;exitDy=0;entryX=0.500;entryY=1.000;entryDx=0;entryDy=0;">
      <mxGeometry width="50" height="50" relative="1" as="geometry">
        <Array as="points">
          <mxPoint x="993" y="2164" />
          <mxPoint x="560" y="2164" />
        </Array>
      </mxGeometry>
    </mxCell>
    <mxCell id="label92" parent="edge15" vertex="1" connectable="0" value="phieu_giam_gia_id:id" style="edgeLabel;resizable=0;html=1;align=left;verticalAlign=top;strokeColor=default;">
      <mxGeometry x="717" y="2144" as="geometry" />
    </mxCell>
    <mxCell id="edge0" edge="1" value="" parent="1" source="node11" target="node1" style="html=1;rounded=1;edgeStyle=orthogonalEdgeStyle;dashed=0;startArrow=none;endArrow=block;endSize=12;strokeColor=#595959;exitX=0.500;exitY=0.000;exitDx=0;exitDy=0;entryX=0.500;entryY=1.000;entryDx=0;entryDy=0;">
      <mxGeometry width="50" height="50" relative="1" as="geometry">
        <Array as="points" />
      </mxGeometry>
    </mxCell>
    <mxCell id="label2" parent="edge0" vertex="1" connectable="0" value="thuong_hieu_id:id" style="edgeLabel;resizable=0;html=1;align=left;verticalAlign=top;strokeColor=default;">
      <mxGeometry x="1500" y="200" as="geometry" />
    </mxCell>
    <mxCell id="edge9" edge="1" value="" parent="1" source="node4" target="node11" style="html=1;rounded=1;edgeStyle=orthogonalEdgeStyle;dashed=0;startArrow=none;endArrow=block;endSize=12;strokeColor=#595959;exitX=0.500;exitY=0.000;exitDx=0;exitDy=0;entryX=0.500;entryY=1.000;entryDx=0;entryDy=0;">
      <mxGeometry width="50" height="50" relative="1" as="geometry">
        <Array as="points">
          <mxPoint x="1420" y="824" />
          <mxPoint x="1600" y="824" />
        </Array>
      </mxGeometry>
    </mxCell>
    <mxCell id="label56" parent="edge9" vertex="1" connectable="0" value="san_pham_id:id" style="edgeLabel;resizable=0;html=1;align=left;verticalAlign=top;strokeColor=default;">
      <mxGeometry x="1471" y="796" as="geometry" />
    </mxCell>
    <mxCell id="edge41" edge="1" value="" parent="1" source="node35" target="node16" style="html=1;rounded=1;edgeStyle=orthogonalEdgeStyle;dashed=0;startArrow=none;endArrow=block;endSize=12;strokeColor=#595959;exitX=0.643;exitY=0.000;exitDx=0;exitDy=0;entryX=0.500;entryY=1.000;entryDx=0;entryDy=0;">
      <mxGeometry width="50" height="50" relative="1" as="geometry">
        <Array as="points">
          <mxPoint x="2071" y="964" />
          <mxPoint x="2140" y="964" />
        </Array>
      </mxGeometry>
    </mxCell>
    <mxCell id="label248" parent="edge41" vertex="1" connectable="0" value="bo_nho_id:id" style="edgeLabel;resizable=0;html=1;align=left;verticalAlign=top;strokeColor=default;">
      <mxGeometry x="2068" y="925" as="geometry" />
    </mxCell>
    <mxCell id="edge5" edge="1" value="" parent="1" source="node35" target="node39" style="html=1;rounded=1;edgeStyle=orthogonalEdgeStyle;dashed=0;startArrow=none;endArrow=block;endSize=12;strokeColor=#595959;exitX=0.929;exitY=0.000;exitDx=0;exitDy=0;entryX=0.500;entryY=1.000;entryDx=0;entryDy=0;">
      <mxGeometry width="50" height="50" relative="1" as="geometry">
        <Array as="points">
          <mxPoint x="2172" y="1004" />
          <mxPoint x="2380" y="1004" />
        </Array>
      </mxGeometry>
    </mxCell>
    <mxCell id="label32" parent="edge5" vertex="1" connectable="0" value="cpu_id:id" style="edgeLabel;resizable=0;html=1;align=left;verticalAlign=top;strokeColor=default;">
      <mxGeometry x="2328" y="961" as="geometry" />
    </mxCell>
    <mxCell id="edge30" edge="1" value="" parent="1" source="node35" target="node37" style="html=1;rounded=1;edgeStyle=orthogonalEdgeStyle;dashed=0;startArrow=none;endArrow=block;endSize=12;strokeColor=#595959;exitX=0.500;exitY=0.000;exitDx=0;exitDy=0;entryX=0.500;entryY=1.000;entryDx=0;entryDy=0;">
      <mxGeometry width="50" height="50" relative="1" as="geometry">
        <Array as="points" />
      </mxGeometry>
    </mxCell>
    <mxCell id="label182" parent="edge30" vertex="1" connectable="0" value="gpu_id:id" style="edgeLabel;resizable=0;html=1;align=left;verticalAlign=top;strokeColor=default;">
      <mxGeometry x="1967" y="906" as="geometry" />
    </mxCell>
    <mxCell id="edge27" edge="1" value="" parent="1" source="node35" target="node2" style="html=1;rounded=1;edgeStyle=orthogonalEdgeStyle;dashed=0;startArrow=none;endArrow=block;endSize=12;strokeColor=#595959;exitX=0.357;exitY=0.000;exitDx=0;exitDy=0;entryX=0.500;entryY=1.000;entryDx=0;entryDy=0;">
      <mxGeometry width="50" height="50" relative="1" as="geometry">
        <Array as="points">
          <mxPoint x="1969" y="704" />
          <mxPoint x="1880" y="704" />
        </Array>
      </mxGeometry>
    </mxCell>
    <mxCell id="label164" parent="edge27" vertex="1" connectable="0" value="man_hinh_id:id" style="edgeLabel;resizable=0;html=1;align=left;verticalAlign=top;strokeColor=default;">
      <mxGeometry x="1794" y="682" as="geometry" />
    </mxCell>
    <mxCell id="edge1" edge="1" value="" parent="1" source="node35" target="node30" style="html=1;rounded=1;edgeStyle=orthogonalEdgeStyle;dashed=0;startArrow=none;endArrow=block;endSize=12;strokeColor=#595959;exitX=0.786;exitY=0.000;exitDx=0;exitDy=0;entryX=0.500;entryY=1.000;entryDx=0;entryDy=0;">
      <mxGeometry width="50" height="50" relative="1" as="geometry">
        <Array as="points">
          <mxPoint x="2121" y="984" />
          <mxPoint x="2260" y="984" />
        </Array>
      </mxGeometry>
    </mxCell>
    <mxCell id="label8" parent="edge1" vertex="1" connectable="0" value="mau_sac_id:id" style="edgeLabel;resizable=0;html=1;align=left;verticalAlign=top;strokeColor=default;">
      <mxGeometry x="2179" y="913" as="geometry" />
    </mxCell>
    <mxCell id="edge42" edge="1" value="" parent="1" source="node35" target="node14" style="html=1;rounded=1;edgeStyle=orthogonalEdgeStyle;dashed=0;startArrow=none;endArrow=block;endSize=12;strokeColor=#595959;exitX=0.214;exitY=0.000;exitDx=0;exitDy=0;entryX=0.500;entryY=1.000;entryDx=0;entryDy=0;">
      <mxGeometry width="50" height="50" relative="1" as="geometry">
        <Array as="points">
          <mxPoint x="1919" y="724" />
          <mxPoint x="1740" y="724" />
        </Array>
      </mxGeometry>
    </mxCell>
    <mxCell id="label254" parent="edge42" vertex="1" connectable="0" value="ram_id:id" style="edgeLabel;resizable=0;html=1;align=left;verticalAlign=top;strokeColor=default;">
      <mxGeometry x="1864" y="794" as="geometry" />
    </mxCell>
    <mxCell id="edge13" edge="1" value="" parent="1" source="node35" target="node11" style="html=1;rounded=1;edgeStyle=orthogonalEdgeStyle;dashed=0;startArrow=none;endArrow=block;endSize=12;strokeColor=#595959;exitX=0.071;exitY=0.000;exitDx=0;exitDy=0;entryX=0.500;entryY=1.000;entryDx=0;entryDy=0;">
      <mxGeometry width="50" height="50" relative="1" as="geometry">
        <Array as="points">
          <mxPoint x="1868" y="1044" />
          <mxPoint x="1420" y="1044" />
          <mxPoint x="1420" y="824" />
          <mxPoint x="1600" y="824" />
        </Array>
      </mxGeometry>
    </mxCell>
    <mxCell id="label80" parent="edge13" vertex="1" connectable="0" value="san_pham_id:id" style="edgeLabel;resizable=0;html=1;align=left;verticalAlign=top;strokeColor=default;">
      <mxGeometry x="1331" y="997" as="geometry" />
    </mxCell>
    <mxCell id="edge4" edge="1" value="" parent="1" source="node23" target="node35" style="html=1;rounded=1;edgeStyle=orthogonalEdgeStyle;dashed=0;startArrow=none;endArrow=block;endSize=12;strokeColor=#595959;exitX=0.500;exitY=0.000;exitDx=0;exitDy=0;entryX=0.500;entryY=1.000;entryDx=0;entryDy=0;">
      <mxGeometry width="50" height="50" relative="1" as="geometry">
        <Array as="points">
          <mxPoint x="1900" y="2044" />
          <mxPoint x="2020" y="2044" />
        </Array>
      </mxGeometry>
    </mxCell>
    <mxCell id="label26" parent="edge4" vertex="1" connectable="0" value="san_pham_chi_tiet_id:id" style="edgeLabel;resizable=0;html=1;align=left;verticalAlign=top;strokeColor=default;">
      <mxGeometry x="1767" y="2058" as="geometry" />
    </mxCell>
    <mxCell id="edge20" edge="1" value="" parent="1" source="node15" target="node33" style="html=1;rounded=1;edgeStyle=orthogonalEdgeStyle;dashed=0;startArrow=none;endArrow=block;endSize=12;strokeColor=#595959;exitX=0.750;exitY=0.000;exitDx=0;exitDy=0;entryX=0.500;entryY=1.000;entryDx=0;entryDy=0;">
      <mxGeometry width="50" height="50" relative="1" as="geometry">
        <Array as="points">
          <mxPoint x="2237" y="2064" />
          <mxPoint x="2300" y="2064" />
        </Array>
      </mxGeometry>
    </mxCell>
    <mxCell id="label122" parent="edge20" vertex="1" connectable="0" value="dot_giam_gia_id:id" style="edgeLabel;resizable=0;html=1;align=left;verticalAlign=top;strokeColor=default;">
      <mxGeometry x="2132" y="2119" as="geometry" />
    </mxCell>
    <mxCell id="edge14" edge="1" value="" parent="1" source="node15" target="node35" style="html=1;rounded=1;edgeStyle=orthogonalEdgeStyle;dashed=0;startArrow=none;endArrow=block;endSize=12;strokeColor=#595959;exitX=0.250;exitY=0.000;exitDx=0;exitDy=0;entryX=0.500;entryY=1.000;entryDx=0;entryDy=0;">
      <mxGeometry width="50" height="50" relative="1" as="geometry">
        <Array as="points">
          <mxPoint x="2083" y="2044" />
          <mxPoint x="2020" y="2044" />
        </Array>
      </mxGeometry>
    </mxCell>
    <mxCell id="label86" parent="edge14" vertex="1" connectable="0" value="san_pham_chi_tiet_id:id" style="edgeLabel;resizable=0;html=1;align=left;verticalAlign=top;strokeColor=default;">
      <mxGeometry x="1950" y="2101" as="geometry" />
    </mxCell>
    <mxCell id="edge7" edge="1" value="" parent="1" source="node7" target="node22" style="html=1;rounded=1;edgeStyle=orthogonalEdgeStyle;dashed=0;startArrow=none;endArrow=block;endSize=12;strokeColor=#595959;exitX=0.250;exitY=0.000;exitDx=0;exitDy=0;entryX=0.500;entryY=1.000;entryDx=0;entryDy=0;">
      <mxGeometry width="50" height="50" relative="1" as="geometry">
        <Array as="points">
          <mxPoint x="1167" y="1024" />
          <mxPoint x="1160" y="1024" />
        </Array>
      </mxGeometry>
    </mxCell>
    <mxCell id="label44" parent="edge7" vertex="1" connectable="0" value="danh_muc_id:id" style="edgeLabel;resizable=0;html=1;align=left;verticalAlign=top;strokeColor=default;">
      <mxGeometry x="1071" y="979" as="geometry" />
    </mxCell>
    <mxCell id="edge32" edge="1" value="" parent="1" source="node7" target="node11" style="html=1;rounded=1;edgeStyle=orthogonalEdgeStyle;dashed=0;startArrow=none;endArrow=block;endSize=12;strokeColor=#595959;exitX=0.750;exitY=0.000;exitDx=0;exitDy=0;entryX=0.500;entryY=1.000;entryDx=0;entryDy=0;">
      <mxGeometry width="50" height="50" relative="1" as="geometry">
        <Array as="points">
          <mxPoint x="1273" y="1044" />
          <mxPoint x="1420" y="1044" />
          <mxPoint x="1420" y="824" />
          <mxPoint x="1600" y="824" />
        </Array>
      </mxGeometry>
    </mxCell>
    <mxCell id="label194" parent="edge32" vertex="1" connectable="0" value="san_pham_id:id" style="edgeLabel;resizable=0;html=1;align=left;verticalAlign=top;strokeColor=default;">
      <mxGeometry x="1331" y="850" as="geometry" />
    </mxCell>
    <mxCell id="edge19" edge="1" value="" parent="1" source="node25" target="node35" style="html=1;rounded=1;edgeStyle=orthogonalEdgeStyle;dashed=0;startArrow=none;endArrow=block;endSize=12;strokeColor=#595959;exitX=0.500;exitY=0.000;exitDx=0;exitDy=0;entryX=0.500;entryY=1.000;entryDx=0;entryDy=0;">
      <mxGeometry width="50" height="50" relative="1" as="geometry">
        <Array as="points">
          <mxPoint x="1580" y="2044" />
          <mxPoint x="2020" y="2044" />
        </Array>
      </mxGeometry>
    </mxCell>
    <mxCell id="label116" parent="edge19" vertex="1" connectable="0" value="san_pham_chi_tiet_id:id" style="edgeLabel;resizable=0;html=1;align=left;verticalAlign=top;strokeColor=default;">
      <mxGeometry x="1734" y="2024" as="geometry" />
    </mxCell>
    <mxCell id="edge10" edge="1" value="" parent="1" source="node38" target="node35" style="html=1;rounded=1;edgeStyle=orthogonalEdgeStyle;dashed=0;startArrow=none;endArrow=block;endSize=12;strokeColor=#595959;exitX=0.500;exitY=0.000;exitDx=0;exitDy=0;entryX=0.500;entryY=1.000;entryDx=0;entryDy=0;">
      <mxGeometry width="50" height="50" relative="1" as="geometry">
        <Array as="points">
          <mxPoint x="1720" y="2044" />
          <mxPoint x="2020" y="2044" />
        </Array>
      </mxGeometry>
    </mxCell>
    <mxCell id="label62" parent="edge10" vertex="1" connectable="0" value="san_pham_chi_tiet_id:id" style="edgeLabel;resizable=0;html=1;align=left;verticalAlign=top;strokeColor=default;">
      <mxGeometry x="1587" y="2097" as="geometry" />
    </mxCell>
    <mxCell id="edge17" edge="1" value="" parent="1" source="node29" target="node35" style="html=1;rounded=1;edgeStyle=orthogonalEdgeStyle;dashed=0;startArrow=none;endArrow=block;endSize=12;strokeColor=#595959;exitX=0.500;exitY=0.000;exitDx=0;exitDy=0;entryX=0.500;entryY=1.000;entryDx=0;entryDy=0;">
      <mxGeometry width="50" height="50" relative="1" as="geometry">
        <Array as="points">
          <mxPoint x="2380" y="2044" />
          <mxPoint x="2020" y="2044" />
        </Array>
      </mxGeometry>
    </mxCell>
    <mxCell id="label104" parent="edge17" vertex="1" connectable="0" value="san_pham_chi_tiet_id:id" style="edgeLabel;resizable=0;html=1;align=left;verticalAlign=top;strokeColor=default;">
      <mxGeometry x="2134" y="2024" as="geometry" />
    </mxCell>
    <mxCell id="edge38" edge="1" value="" parent="1" source="node18" target="node29" style="html=1;rounded=1;edgeStyle=orthogonalEdgeStyle;dashed=0;startArrow=none;endArrow=block;endSize=12;strokeColor=#595959;exitX=0.500;exitY=0.000;exitDx=0;exitDy=0;entryX=0.500;entryY=1.000;entryDx=0;entryDy=0;">
      <mxGeometry width="50" height="50" relative="1" as="geometry">
        <Array as="points">
          <mxPoint x="1440" y="2904" />
          <mxPoint x="2380" y="2904" />
        </Array>
      </mxGeometry>
    </mxCell>
    <mxCell id="label230" parent="edge38" vertex="1" connectable="0" value="serial_number_id:id" style="edgeLabel;resizable=0;html=1;align=left;verticalAlign=top;strokeColor=default;">
      <mxGeometry x="1854" y="2884" as="geometry" />
    </mxCell>
    <mxCell id="edge22" edge="1" value="" parent="1" source="node26" target="node20" style="html=1;rounded=1;edgeStyle=orthogonalEdgeStyle;dashed=0;startArrow=none;endArrow=block;endSize=12;strokeColor=#595959;exitX=0.250;exitY=0.000;exitDx=0;exitDy=0;entryX=0.500;entryY=1.000;entryDx=0;entryDy=0;">
      <mxGeometry width="50" height="50" relative="1" as="geometry">
        <Array as="points">
          <mxPoint x="1185" y="3004" />
          <mxPoint x="820" y="3004" />
        </Array>
      </mxGeometry>
    </mxCell>
    <mxCell id="label134" parent="edge22" vertex="1" connectable="0" value="hoa_don_chi_tiet_id:id" style="edgeLabel;resizable=0;html=1;align=left;verticalAlign=top;strokeColor=default;">
      <mxGeometry x="1062" y="3016" as="geometry" />
    </mxCell>
    <mxCell id="edge36" edge="1" value="" parent="1" source="node26" target="node29" style="html=1;rounded=1;edgeStyle=orthogonalEdgeStyle;dashed=0;startArrow=none;endArrow=block;endSize=12;strokeColor=#595959;exitX=0.750;exitY=0.000;exitDx=0;exitDy=0;entryX=0.500;entryY=1.000;entryDx=0;entryDy=0;">
      <mxGeometry width="50" height="50" relative="1" as="geometry">
        <Array as="points">
          <mxPoint x="1336" y="3104" />
          <mxPoint x="1440" y="3104" />
          <mxPoint x="1440" y="2904" />
          <mxPoint x="2380" y="2904" />
        </Array>
      </mxGeometry>
    </mxCell>
    <mxCell id="label218" parent="edge36" vertex="1" connectable="0" value="serial_number_id:id" style="edgeLabel;resizable=0;html=1;align=left;verticalAlign=top;strokeColor=default;">
      <mxGeometry x="1328" y="2960" as="geometry" />
    </mxCell>
    <mxCell id="edge25" edge="1" value="" parent="1" source="node3" target="node0" style="html=1;rounded=1;edgeStyle=orthogonalEdgeStyle;dashed=0;startArrow=none;endArrow=block;endSize=12;strokeColor=#595959;exitX=0.500;exitY=0.000;exitDx=0;exitDy=0;entryX=0.833;entryY=1.000;entryDx=0;entryDy=0;">
      <mxGeometry width="50" height="50" relative="1" as="geometry">
        <Array as="points">
          <mxPoint x="-40" y="184" />
          <mxPoint x="520" y="184" />
          <mxPoint x="520" y="144" />
          <mxPoint x="510" y="144" />
        </Array>
      </mxGeometry>
    </mxCell>
    <mxCell id="label152" parent="edge25" vertex="1" connectable="0" value="nguoi_dung_id:id" style="edgeLabel;resizable=0;html=1;align=left;verticalAlign=top;strokeColor=default;">
      <mxGeometry x="332" y="164" as="geometry" />
    </mxCell>
  </root>
</mxGraphModel>